# xmcd
#
# Track frame offsets: 
#        150
#        13045
#        26845
#        39500
#        54151
#        65623
#        77570
#        90384
#        100964
#        114264
#        128230
#        141109
#        155392
#        167034
#        182200
#        193486
#        206416
#        218349
#        230259
#        244264
#        256252
#        269281
#        280875
#        294570
#        309665
#
# Disc length: 4298 seconds
#
# Revision: 0
# Processed by: cddbd v1.5.2PL0 Copyright (c) Steve Scherf et al.
# Submitted via: ExactAudioCopy v0.99pb3
#
DISCID=6010c819
DTITLE=Ray Charles - Original Recordings - CD2
DYEAR=2007
DGENRE=R&B
TTITLE0=I Got A Woman
TTITLE1=A Fool For You
TTITLE2=Jumpin' In The Mornin'
TTITLE3=Losing Hand
TTITLE4=She's On The Ball
TTITLE5=Can't You See Darling
TTITLE6=Why Did You Go?
TTITLE7=Hey Now
TTITLE8=Baby Won't You Please Come Home
TTITLE9=Misery In My Heart
TTITLE10=Can Anyone Ask For More?
TTITLE11=Someday
TTITLE12=Let's Have A Ball
TTITLE13=I'm Wondering And Wondering
TTITLE14=I'll Do Anything But Work
TTITLE15=Lonely Boy
TTITLE16=Roll With Me, Baby
TTITLE17=How Long, How Long Blues
TTITLE18=Late In The Evening Blues
TTITLE19=The Sun's Gonna Shine
TTITLE20=Mary Ann
TTITLE21=What Have I Done?
TTITLE22=The Midnight Hour
TTITLE23=Drown In My Own Tears
TTITLE24=Greenbacks
EXTD=
EXTT0=
EXTT1=
EXTT2=
EXTT3=
EXTT4=
EXTT5=
EXTT6=
EXTT7=
EXTT8=
EXTT9=
EXTT10=
EXTT11=
EXTT12=
EXTT13=
EXTT14=
EXTT15=
EXTT16=
EXTT17=
EXTT18=
EXTT19=
EXTT20=
EXTT21=
EXTT22=
EXTT23=
EXTT24=
PLAYORDER=
